<?xml version="1.0" encoding="UTF-8"?>
<svg id="_Слой_1" data-name="Слой 1" xmlns="http://www.w3.org/2000/svg" version="1.1" viewBox="0 0 1920 1080">
  <defs>
    <style>
      .cls-1 {
        fill: #000;
      }

      .cls-1, .cls-2, .cls-3, .cls-4, .cls-5, .cls-6 {
        stroke-width: 0px;
      }

      .cls-2 {
        fill: #ff;
      }

      .cls-3 {
        fill: #e9b181;
      }

      .cls-4 {
        fill: #f09d4c;
      }

      .cls-5 {
        fill: #fff;
      }

      .cls-6 {
        fill: #fefefe;
      }
    </style>
  </defs>
  <g>
    <path class="cls-4" d="M1091.4,381.8s0,0,0,0c-.8,1.2,5.4,5,10.3,12.8.2.3.6,1,1.3,2.3,10.3,18.1,10.7,20.8,9.8,21.6-1.1.9-3.5-1-4.6.1-1.1,1.1.2,3.9.5,4.7,2.5,6.5,3.6,12.7,3.5,18.6-.1,10.1-3.9,18.8-7.5,25.6-1.8,3.4-4,6.6-4,6.6-1.6,2.6-3.4,5.2-4.3,4.8-1.5-.6,0-8.8-.4-8.9-.6-.1-3.8,14.5-9.2,18.4-.9.6-2,1.2-2,1.2-5.9,3.5-9,2.7-10.7-3.9-1.5-5.7-4.2-11.1-8.1-14.6-9.5-8.6-19.6-16.9-32.9-19.2-21.3-3.7-35.9,6.7-47.8,22.7-12,16-16.4,34.4-18.2,53.9-1.6,16.7,0,32.8,6.1,48.3,3.9,10.1,10.1,18.7,19.6,24.5,11.1,6.7,25.3,5.9,35.5-2.3,8.8-7.1,16.9-15.1,26-21.8,10.3-7.6,21.5-13.9,34.2-16.5,8.9-1.8,14.1,1.2,19,9.8,7.1,12.4,5.5,25.7,4.2,37.7-.3,3.2-.9,6.2-2.3,9.5-.9,2.1-1.5,3.2-3.1,6.1-1.3,2.4-3.1,5.8-5,10.3,4.3-4.6,9.4-9.3,11.4-8.1,2.6,1.6-1,13.6-5,21.4-13.3,26.1-45.3,35.6-57.1,38.3-33.8,7.6-67.3,5.1-99.6-8.3-29.4-12.2-49.5-33.4-60.7-63.1-8.2-21.8-14.6-44.2-16.1-67.5-2-32.5,2.2-64.1,15.1-94.4,9.7-22.8,23.3-42.8,41.5-59.6,7.7-7.1,19.7-13.9,27-18.4,0,0,14.8-9.2,15.7-7.9.4.5-3.3,3.1-2.7,4.3.8,1.6,9.5-1.1,15.1-2.7,0,0,0,0,0,0,7.6-2.9,17.2-4.9,33.3-6.6,1.5-.2,19.5-2,19.7-.5.1.6-3.3,1.2-3.3,2.1.1,2,18.9.1,39.5,6.2,14.9,4.4,23.1,10.7,22.8,11.4-.2.5-4.6-.8-6.4,1.2ZM896,576c-4.5-.8-5.1-5.5-8-8-.1,0-.3-.2-.4-.2.1,0,.3.1.4.2,0,1.3-.2,2.8.2,4,3.7,9.6,7.1,19.3,13.6,27.5,1.9,2.4,3.4,5,5.1,7.6-2.2,0-3.8-.9-5.3-1.6-.5-.2-1.3-.3-1.9,0-.8.3-.5,1.2-.2,1.7,3.6,6.3,6.3,13.2,12.3,17.9,4.5,3.5,8.8,7.2,14.2,11.7-6.3-.2-10-4-15.2-4.4.7,1.2,6,9.9,11.4,15.2,2.6,2.6,6,5.4,6,5.4s1.6,1.3,3.3,2.6c31.4,23.9,77.2,25.3,77.2,25.3,9.1.6,18.2-.4,27.2-1.8,14-2,27.1-6.2,39.4-13,5.5-3,10.7-6.8,13.9-12.7-5.8-1.4-10.5,2.7-15.8,2.3-.3-2.1,1.1-2.3,2.3-2.8,6.4-2.7,12.4-5.6,12.4-14,0-.8.8-1.5.9-2.3,1-5.1,6.2-7.2,8-11.8,5.3-14.3,7.5-28.8,4.4-43.8-1.3-6.4-7.7-11.4-13.3-10.8-8,.9-13.7,5.2-18.1,11.6-7.4,10.8-8.1,11.5-13.2,14.1.1-.9.3-2,.7-3.1.7-2.4,1.2-3.6.8-3.9-.3-.2-1,.2-2,.8-.7.5-1.4,1-1.9,1.4-1.2,1.2-6.2,7.3-12.9,15.9-.9-1.4-1.6-2.3-2.2-3.3-5.4,6.2-9.6,13.5-18.7,16.7.6-1.5.7-2,.9-2.4.5-.9,1.1-1.8,1.9-3.4.2-.5.4-1,.2-1.3-.2-.3-.8-.2-1.2,0-2.1.5-3.2.8-3.6.9-12,2.3-23.3,1.3-34-5.3-16.3-10-22.6-26.1-25.9-43.6-3.1-16.4-3.5-33-.1-49.4,1.5-7.4,1.6-15.2,6-21.8,0,.8.2,1.5.2,2.3,0-2.3,6.1-3,1.8-6.3-.3-4.2,2.9-7,4.7-10.2,6.1-11.6,13.8-21.8,24.9-29.3,4.2-2.8,9.3-4.1,13.2-7.3-1.4-2-3.4-1.9-5-2.8-1.7-.9-3.4-1.7-3.6-3.8-.1-1.1.3-3.1,1.7-1.7,4.5,4.5,10.4,3.6,15.7,5.2,1.8.5,4.4,2.2,5.3,0,.7-1.6-1.8-3.5-3.5-4.8-.5-.4-1.2-.7-1.7-1.1-2.7-2.4-4-5.5-3.6-9.4,11.2,12.5,26.8,17.5,40.2,26-.6-3.5-1.9-6.3-3.9-8.7-1.1-1.4-2.4-3-.8-4.3,1.3-1.1,2.2.9,3.2,1.6,5,3.8,8.3,9,12.1,13.8,5.2,6.5,9.9,13.2,13.9,20.6,1.2,2.2,2.3,3.2,4.2.5,4.5-6.6,4-23.6-.6-30.1-1.4-2-5.2-4.8-3.5-6.1,2.3-1.7,4.9,2,7.2,3.8,5.8,4.5,6,12,9.9,18.4,4.7-10,5.4-19.6,2.1-29.6-2.6-7.9-8.4-12.9-15.7-16.3-4.1-1.9-5-4.3-1.9-5.8,7.7-3.7,2.6-4.4-1.1-5.5-.3-.1-.6-.3-.9-.4-.9-.4-2.1-.7-1.8-2,.3-1.2,1.4-.8,2.5-.8,5.7.1,11.3,0,17,0,0-.8,0-1.5.1-2.3-4.7-1.9-9.4-3.9-14.2-5.5-7.6-2.6-16.7-4.7-26.7-3.1-2.1.3-6.3,1.2-6.6.4-.2-.7,2.1-2.2,2.5-2.5,1.5-1,2.8-1.4,3.1-1.5,4.9-2.1,10-3.5,15.5-3.7-10.7-3.5-21.7-2.7-32.5-2.1-10.7.5-21.4,2.2-31.9,5.2,5.7-4.6,11.8-8,18.9-10-1.3-2-3.1-1.3-4.7-1.4-11.7-.8-22.3,2.4-32.2,8.3-2.5,1.4-5.3,3.6-4.4-2.4-10.8,3.3-17.9,11.3-26.3,18.2-1.6-3.9,3.1-6.1,1.8-9.7-6.1,2.2-10.3,6.4-14.4,10.9-4.2,4.6-6.9,10.4-12.1,14.1-1.9-2.2,1.3-3.7.2-6-12.5,9.7-17.3,23.9-22.5,38.9-1.5-4.1.3-7.2-1.6-10-10.4,14.3-8.7,31.8-13.4,47.5-2.8-.9-2.2-4-4.7-5.1-7.6,22.8-8.4,45.4,1.2,67.7-2.9.7-3.7-3.1-5.4-1.7-2,1.5-1.1,4.2-.8,6.5.6,3.8,2,7.3,3.6,10.8,1.7,3.9,2.4,4.3,3.9,7.8,1.3,3,2.1,5.6,2.6,7.3ZM1088.8,405.7c0-.1,0-.3,0-.4,0-.4.4-.6.5-.7-.1.2-.3.3-.4.5,0,.2,0,.5-.1.7Z"/>
    <path class="cls-4" d="M1243.1,450.5c12.8-20,24-39.5,39.2-56.1,10.9-11.9,23.9-21.2,40.8-21,25.8.2,44.4,15.4,40.1,45-2.6,17.8-12.9,31.4-24.3,44.2-14.9,16.8-31.5,31.9-48.4,46.8-6.4,5.7-12.4,11.8-18.7,17.5-2.7,2.4.2,3.5,1.4,4.6,6.4,6.3,13,12.4,19.5,18.6,11.7,10.9,22.2,22.9,32.1,35.4,13.5,17.1,24.3,35.6,32.9,55.5,2.3,5.4,3.3,11,3.3,17,0,11.3-6.1,18-15.6,21.3-8.9,3.1-18.6,2.8-28,2.8-12.2,0-21.9-7.4-32.5-12.4-18.5-8.9-28.5-25.8-40.8-40.7-7-8.5-13.7-17.1-20.1-27.7-.8,7.5-1.2,13.7-2,19.9-2.6,19.7-8.9,37.9-24.6,51.3-13.7,11.7-25.1,12.7-39.6,4-8.1-4.8-11.3-13.8-12.9-22.8-3.7-20.2-4-40.7-2.6-61.2.7-10.4,1.5-20.9,1.7-31.3,0-5.1.6-10.3,1-15.4,2-24.2,3.8-48.3,4.9-72.6.5-9.6,1.1-19.2,2-28.8.6-6.3.2-12.8.9-19.2.9-7.9,1.8-15.8,3.6-23.6,4.7-21.3,25.2-32.8,47.1-27.2,21,5.4,31.6,19.8,36.5,39.8,2.9,11.6,3.1,23.3,3,36.2ZM1166.9,669c.2.1.3.2.5.4-.1-.2-.2-.3-.4-.5.2-2.1-.7-4-1.6-5.7-1.9-4-1.3-7.8.8-13.1,2.1,6.2,3.6,11.4,5.4,16.3.9,2.4,2.2,3.4,4.1,4.4,6,3.1,14.9-2.7,19.1-7.6,7.9-9.3,14-19.5,16.6-31.9,2.5-12.4,4.6-24.7,2.6-37.4-.9-6-2.4-12.6,4.8-16.5.4-.2.6-.8.9-1.2.7-1.2,1.4-2.7,2.8-2.5,1.6.3,1.2,2.1,1.4,3.4,2.2,11,8.4,19.8,15.6,29.5,1.5-5.7-2.3-10.8,2.2-15.5,4.5,14.2,7.8,28.3,16.9,41.2.6-6.4-.7-11.9,2.5-17.5.4,2.8,3.8,3,3.6,5.2-.6,6.3,2.8,11.9,3.1,18,.7,1.7,1.3,3.4,2,5,1.8.9,3,2.5,4.2,4.1,2.5,3.3,4.5,7.1,8.5,8.9,1.3.6,2.4,2.4,3.8,1.2,1.2-1.1,0-2.6-.7-3.6-2.1-3-1.5-6.4-2.2-9.6-.1-.5-.2-1,0-1.4.1-.2.2-.1.4-.3.4-.5.2-1.1.4-1.1.5-.2,1.6,2,1.6,2,1.9,3.6,6.6,8.3,13.4,17.1,2.4,3,5.3,4.9,8.5,6.7,1,.5,2.2,1.5,3.2.6,1.4-1.2,0-2.5-.6-3.5-2.3-3.9-3.3-7.8-2.1-12.3,1.6,0,1.9,1.3,2.6,2.1,4.6,5.9,10.2,10.5,17,13.5,2,.9,4.8,1.4,6.2,0,1.4-1.4-1.3-3-1.9-4.5-.2-.4-.7-.8-.9-1.2-.3-.9-.4-1-1.1-2.5-.4-.9-.6-1.2-.5-1.4,0,0,.3-.2,1.6.3,1.5.6,2.3,1.1,2.3,1.1,2.8,1.8,5.5,3.8,8.4,5.3,4.1,2.2,6.2,1.2,7.7-3.3,2.3-6.8.5-13.2-2-19.3-9.3-22.4-23.1-42.1-38.4-60.7-14.4-17.4-30.8-33-47.6-48.1-3.1-2.8-5.3-5.1-.4-8.1,1.5-1,2.7-2.5,3.9-3.9,8.9-11.1,20.2-19.7,30.2-29.6,14.4-14.2,30.4-26.9,42.6-43.2,8.5-11.4,16.2-23.2,14.8-38.5-.7-8-3.5-15.2-9.7-20.6-6.7-5.8-15.7-6-23.5-6-6.5,0-13.4,4-19.2,8.7-12.4,10-21.7,22.4-30,35.6-10.8,17.1-22.2,33.9-32.5,51.3-2.2,3.7-4,8.6-9.7,10.4,1.1-5.9,2.9-11,3.4-16.1,1.5-14.8,2.5-29.8.2-44.7-2-13.2-6.9-25.2-16-35.3-1.1-1.2-2.5-3-4-2.4-1.8.7-.9,3-.8,4.5.1,1.6,1,3.2,1.3,4.8.8,4.5,2.8,9,.7,14-3.7-3.3-3.9-7.7-5.5-11.5-4.5-10.4-16.6-21.5-30.6-13.3-7,4.1-9.4,11-10.9,18.1-2.5,11.7-3.1,23.6-4,35.5-1.3,19-1.5,38.1-3,57.1-.8,10.7-1.4,21.5-2.6,32.2-2,18.3-2.2,36.7-3.4,55-.8,13,0,26.2-.3,39.3-.2,9.5,1.2,18.9,3.3,28.1,1.4,6.1,2.8,13,10.7,14.8Z"/>
    <path class="cls-4" d="M1522.6,626.8c-2.9,3.5-5.3,6.3-7.7,9.2-14.9,17.4-33.2,27.4-56.6,28.2-23.3.8-44.5-4.8-63.2-18.6-14.1-10.4-21.8-25.2-26.1-41.9-7.7-30.1-6.1-60,1.5-89.8,6.4-25,14.4-49.4,26.6-72.2,9.4-17.5,20.6-33.8,35.7-47,13.6-11.7,29.7-18.4,47.1-21.4,21.3-3.7,42.5-2.8,63.6,2.6,34.1,8.6,60.2,36.9,65.5,71.9,2.1,13.8,2.8,27.4-3,40.6-3.8,8.5-9,15.9-17.1,20.8-2.2,1.3-2.6,2.8-1.3,4.9,7.1,12.5,8.2,26,7.6,40-.5,11.6-1,23.3,2.5,34.6,1.8,5.8,4.6,11.6,11.4,12.6,8,1.1,14-3.1,18.5-9.5,1.7-2.4,2.9-5.2,3.5-8.2.4-2.1.9-4.5,3.5-4.9,2.8-.4,4.8,1.3,6.2,3.5,2.4,3.9,3.7,8.2,4.1,12.7,3.1,36.5-20.2,71.2-58.5,78.8-18.7,3.7-36.2.6-50.1-13.7-8-8.2-11-18.7-13.1-29.6-.2-.9-.3-1.8-.6-3.6ZM1634.5,597.6c-2.9.8-4.3,2.6-5.7,4.5-6.9,9.7-21.9,11.8-31.6,5-7.6-5.4-9.5-13.6-11.3-21.6-2.8-12.1-1.3-24.5-.5-36.6.6-8.6-1-16.4-3.7-24.3-2.1-6.3-4.2-7.1-10.9-5.9-2.4.4-4.6,1.3-7.1,1.4-15.3.6-28.2-4.8-39.3-15-.8-.7-1.4-2.1-2.8-1.5-.9.4-.7,1.4-.6,2.2.5,6.5-1.8,12.4-4,18.4-7.1,20-19.9,33.7-41.5,38.1-16.2,3.3-33.1-6.8-36.6-23-3.2-14.5,0-28.5,4.9-42.2,5.5-15.5,15-28.3,27-39.4,9.2-8.5,19.9-9.7,31.5-8.6,1.7.2,3.1,1.1,4.4,2.2,4.3,3.8,7.7,8.2,9.4,13.8,1.6,5.4,2.9,10.9,5,16.1,9.6,23.5,22.1,32.7,47.9,27.7,20.5-3.9,30.8-21.6,31.7-42.9.7-17.4-3.7-33.8-13.7-48.4-10.5-15.4-24.7-25.7-42.3-31.5-14.6-4.8-29.6-5.4-44.7-5.1-2.8,0-5.7-1.1-8.3-.4-4,1-8,1.4-12,2.2-10.5,2.3-20.4,5.7-29.8,10.7-12.2,6.5-20.8,17-28.9,27.7-18.6,24.4-29.9,52.4-37.9,81.7-4.8,17.6-8.5,35.4-9.1,53.7-.5,13.5.5,26.8,2.9,40.1,3,16.3,10.1,30.5,23.3,40.6,22.9,17.6,49.2,22,76.7,14,23.5-6.9,37-25.3,47-46.5,3.2-6.8,6-13.8,11.1-21,.4,12.6-1.4,23.8-1,35.1.4,12,2.5,23.4,8.9,33.8,1.2,1.9,2.5,3.6,4.2,4.8,11.1,8,24,9.5,36.7,7.2,22.8-4.1,39.6-17.1,47.8-39.1,3.2-8.7,6.5-17.9,3.1-27.9ZM1513.1,496.1c0-10.5-3.2-22.1-8.9-33-1.7-3.2-4.3-5.2-7.7-5.7-6.5-.9-12.9.5-17.8,4.7-21.2,18.4-31.2,42.1-31.1,70,0,9.3,5.1,15.9,13.8,19.5,11,4.5,24.7.9,34.1-8.9,12-12.5,17.1-27.7,17.6-46.6Z"/>
    <path class="cls-4" d="M776.8,645c-3.8,3.1-5.3,7.5-8,11-10.1,13.1-23.9,20.6-39.5,24.4-21.5,5.2-42.5,3.2-62.1-7.6-14.7-8.1-24.3-20.7-30.2-36.4-10.9-28.8-13.3-58.5-9.1-88.8,5.4-39,17.9-75.5,39-108.9,15.4-24.5,36-43,64.1-50.8,25.8-7.2,51.9-7.5,76.6,5.1,13.2,6.7,22.9,17.2,30.3,30.1,9.1,16,12.8,33.1,11,51.3-1.4,14.1-4.9,27.5-17.7,36.2-1.4,1-1,2.2-.3,3.5,9.3,15.7,7.3,32.9,6.8,50-.4,14.2-1.3,28.7,4.6,42.2,4.5,10.4,13,11.3,19.9,2.5,2.7-3.4,4.9-7.2,7.5-10.6,3.5-4.6,6-4.2,8.7,1.1,2.5,5,3.3,10.5,3.6,15.9,1.4,18.9-4.4,35.2-18.1,48.7-8.4,8.4-17.5,15.3-29.1,18.2-23.9,6-50.9-5.7-56.8-34.9-.1-.7-.7-1.4-1.1-2.3ZM783.1,512.2c.1,8.7-1.1,16.6-3.1,24.3-4.3,16.2-11,30.9-26.1,40.3-9.7,6-25.9,4.7-34.6-2.3-10.7-8.5-13.7-20-14.2-32.6-.3-8.3.2-16.5,2.5-24.9,2.1-7.6,3.2-15.4,6.4-22.8,6.2-14.1,15.3-25.7,28.9-33.1,4.6-2.5,9.7-3.3,14.9-2.7,8.4,1,12.8,6.9,16.6,13.5,3.7,6.4,5.1,13.6,7.6,20.4,3.3,9,8.9,16.3,18.7,18.2,10.6,2.1,20.3-1.2,27.7-9.1,8.3-8.9,10.8-20.4,11.4-32.2.7-15.1-2.8-29.4-10.6-42.4-7.6-12.6-17.6-22.5-31.8-28.1-13.1-5.1-26.4-6.6-40.1-5.7-15.5,1-30.2,4.7-43.8,12.7-22.1,13-36.5,32.5-48.5,54.3-10.4,18.8-18.1,38.7-23.4,59.6-2.9,11.5-5.6,23.2-6.5,34.9-1.1,14.9-1.1,30.1,1,45,2.4,16.6,6.1,32.7,15.6,47.2,7.4,11.3,17.9,18.6,29.6,23.4,7.6,3.1,16.6,2.9,25.1,3.7,10.9,1,21.5-1.4,31.5-5.5,8.2-3.3,15.6-8,21.4-15,10.3-12.3,17.2-26.3,21.8-41.5,1.1-3.5,2.5-6.8,3.8-10.2.9,1,.9,1.8,1,2.6,1.1,11.6-2,23.1-.2,34.8,1.1,6.8,2.5,13.5,6.1,19.2,8.6,13.5,21.9,17.8,36.8,15.4,27.4-4.4,44.7-30.3,45.2-56.8,0-2,0-4.6-1.9-5.2-2.1-.7-2.5,2.3-3.4,3.6-5.8,8.3-18.7,11.3-27.8,5.3-6.1-4.1-9.1-10.3-10.6-16.9-3.1-13.1-4-26.6-3-40,.6-8.2.4-16.3.8-24.4.3-5.5-1.8-10.5-3.4-15.4-.9-2.9-2.5-5.3-7-4-12.3,3.4-23.6.4-34.5-7.5ZM714.9,536.2c-.2,7.6.5,15,3.6,22,5.5,12.6,20.9,17.8,32,10.2,5.6-3.8,10.5-8.3,13.9-14.6,7.1-13,10.4-26.9,10.5-41.6.1-13.6-2.4-26.7-10.2-38.4-3.1-4.6-7.1-6.7-12.7-6.1-10.2,1.2-16.1,8.3-21.2,15.8-10.7,15.8-15.6,33.5-16,52.6Z"/>
    <path class="cls-4" d="M368.1,579c11.7,5.1,19.9,1.9,26.5-10.3,11.5-21.5,21.8-43.6,30.5-66.4,11.6-30.2,23.3-60.4,37.7-89.4,8.1-16.4,16.5-32.6,27.6-47.2,10.7-14.1,24.6-23.5,41.2-29.1,2.2-.7,4.6-1.3,6.8-.9,2.3.4,3.9.2,6-.9,1.9-.9,4.6-.8,6.9-.4,3.7.7,7.5.5,10.9,1.1,10.7,2,20,6.1,27.9,15.3,13.2,15.5,17.3,33.8,19.4,52.7,1.2,10.6,1.2,21.6.9,32.4-.4,11-.3,22-.8,33-1.1,20.9-2.2,41.9-2.8,62.8-1,31.4,1.6,62.4,8.6,93,3.6,15.7,9.7,30.4,21.4,42,3.1,3.1,2.4,5.1-.5,7.6-15.6,14-34.3,18.2-54.5,17.3-18.3-.8-33.9-8.5-45.9-22.1-11.2-12.7-16.1-28.5-18.7-44.9-4.4-27.4-5-50.7-4.1-74.5.3-7.1.7-13,1-17-.5,1.3-1.1,3.1-1.9,5.4-14.3,40.9-11.2,47.8-20.5,69-9.8,22.3-21,43.7-38.3,61.4-2.6,2.6-5.4,5-8.1,7.4-.3-.4-.6-.8-.9-1.2.4-.3.6-.5.6-.6,0,0-.4,0-1,.1-4.5.7-9.1,1.4-13.6,2.1,5.1-5.6,11.2-10.1,16.4-15.7,14.3-15.5,24.4-33.6,33.3-52.4,5.3-11.2,9.9-22.8,13.7-34.7,2.4-7.5,5.5-14.6,6.7-22.5,1-6.7,2.9-13.2,4.6-19.8,2.7-11.1,5.4-22.2,8.3-33.2,3.5-13.2,4.9-26.9,10-39.9,1,4.3,2.1,8.6,1.9,12.9-.6,13.9-1.5,27.9-1.6,41.8-.3,28.3-1.5,56.6.6,84.9,1.2,15.8,3.3,31.3,9.1,46.1,5.8,14.9,14.2,28.2,29.8,34.1,21,7.8,41.7,6.3,61.2-5.6,2.7-1.6,3.3-3,.8-5.8-9.9-11.3-14.5-25.1-18-39.4-2.1-8.3-2.9-16.9-4.5-25.2-2.2-11.6-3-23.2-4.4-34.8-1-8.2-.6-16.4-.7-24.6-.4-17.7-.3-35.6,1.1-53.2,1.2-15.1,1.8-30.1,2.4-45.2.6-14.8,1-29.6-1.7-44.4-2.4-13.1-4.7-26.1-13-37.1-3.2-4.2-6.2-8.8-10.6-11.8-16-10.9-39.4-9.5-55-.3-11.6,6.9-20.4,17.1-27.3,28.6-15.5,25.7-29,52.5-40.7,80.3-11.1,26.3-21.3,52.9-32.6,79.1-6.5,14.9-11.9,30.3-22.9,42.8-6.1,6.9-13.2,12.1-23,12-3.7-4.3-5.3-9.5-6-15Z"/>
    <path class="cls-2" d="M430,676.8c1.1,0,1.9-.3,3-.5,10.9-2.5,19.7-7.7,20-7.2,0,0-.1.2-.9.9-1.8,1.6-.5.6-3,2.8-.8.7-2.3,2.1-4,3.5-3.7,3.2-10.6,8.9-11.9,9.9-4.8,3.7-26.7,16.6-57.1,16.7-21.2,0-41.6-4-59.8-15.7-23.9-15.4-39.7-36.2-43.4-65.2-1-7.9-1.7-15.7.6-24.3,3.9,4.3,3.5,9.5,6.2,14.2,1-6.1-.8-11.2-.8-16.4,0-10.7,1.5-21.2,4.7-31.3,4.3-13.4,13.3-23.5,24.3-32,2-1.5,3.8-3.2,6-4.4,2.5-1.5,5.3-3.5,7.3,1,1,2.4,2.2.4,3-.4,3.2-3.1,6.2-6.5,10-8.9,13.7-8.8,27.9-15.9,44.9-15.4,3.6,0,6.9.9,10.2,2,3.5,1.2,4.1,4.2,1,6.3-9.9,6.7-16.8,15.9-22.3,26.2-4.7,8.9-7.6,17.8-5.9,26.8,1,5.4,5,11.9,5,11.9.2.4.4.7.5.9.2.3.5.6.7.9,0,0,0,0,0,0,.7,5.5,2.3,10.7,6,15,2.1,6.1,7.3,9.8,12.9,14.5-13.6.3-18.6-8.6-24.3-18.8-1,6.6-2.8,11.7-2.3,16.6,1.9,16.5,8.4,30.4,25.2,37,1.8.7,3.8,1.1,5.7,1.7,1.9.7,1.2.6,3.1,1.3,1,.4,1.4.5,1.4.7.1.7-2.7,1.8-4.8,2.4-5.7,1.5-10.7,0-11.4-.1-3-.9-5.9-2.4-8.6-4.7-2.2-1.9-3.5-4.9-6.7-5.7l-.4.4c0,1.9.4,3.6,1.3,5.3,9.1,16.2,23.3,24.3,41.6,25.7,5,.4,9.9-1.1,15.8-2.1-.5,1-1.4,2.3-2.8,3.5-1.5,1.2-2.5,1.1-2.5,1.7-.1,1.4,6.1,4.3,12.7,3.7ZM368.5,515.8c-5.8,2-10.4,3.7-15.1,5.3-19.9,6.7-31.2,21.6-37.1,40.6-3.3,10.7-1.9,22,1.1,32.9.3,1.1,1.1,2.3-.3,3-1.2.6-2.4-.1-3.2-.9-8.2-8.1-11.4-17.9-10.5-29.3.6-7.5,4.5-14.2,5.3-21.7-15.7,13.7-20.2,31.7-20.5,51.1-.3,19.8,7.3,36.7,21.2,50.9-13-2.9-20.3-11.9-25.6-23.2,11.8,55.3,73.3,82.9,126.7,61.3q-23.8-7.2-26.3-11.6c2.1-1.2,4.3,2,6.4,0,0-.3,0-.5,0-.6-2.5-1.3-5.1-2.5-7.6-3.8-15.8-8.3-27-20.3-29.4-38.6-.2-1.7-1.8-4.3-.8-6.1.6-1,2.3-2.1,3.4-1.7.5.2.8.6.9.5.4-.2-.4-2.5-.5-2.9,0,0,0,0,0,0-1.9-5.1-2.4-11-2.4-11-1-10.1.8-18.5.8-18.5.3-1.3,1-4.4-.2-7.8-.3-1-.8-1.9-1.5-2.9-3-4.2-4.3-9.4-4.1-14.6.7-16,7-30.7,10.3-36.2.1-.3,1-1.8,2.3-3.8,2.7-4.3,5-7.9,6.8-10.4Z"/>
    <path class="cls-3" d="M888,568c2.9,2.5,3.5,7.2,8,8,.1.5.3.9.4,1.4.1,0,.3-.2.4-.3-.3-.4-.5-.7-.8-1.1-1.1-5.5-4.3-10.1-6.5-15.1-1.5-3.5-3-7-3.6-10.8-.4-2.3-1.3-5,.8-6.5,1.7-1.3,2.5,2.4,5.4,1.7-9.5-22.4-8.7-44.9-1.2-67.7,2.4,1.1,1.9,4.2,4.7,5.1,4.7-15.7,3.1-33.2,13.4-47.5,1.9,2.8.1,6,1.6,10,5.2-15,10-29.2,22.5-38.9,1.1,2.3-2.2,3.8-.2,6,5.1-3.8,7.9-9.5,12.1-14.1,4.2-4.6,8.3-8.7,14.4-10.9,1.2,3.6-3.4,5.9-1.8,9.7,8.3-6.9,15.5-14.9,26.3-18.2-.9,6,2,3.9,4.4,2.4,10-5.8,20.6-9.1,32.2-8.3,1.6.1,3.4-.5,4.7,1.4-7,2-13.2,5.4-18.9,10,10.5-3,21.2-4.6,31.9-5.2,10.8-.5,21.8-1.3,32.5,2.1-5.5.2-10.6,1.6-15.5,3.7-.2.1-1.6.5-3.1,1.5-1.1.7-2.6,2-2.3,2.4.2.3,1,0,2.9-.2,0,0,.7.3,3.4-.1,14.8-2.4,27.8,3.2,40.9,8.6.8.4,3.2,1.7,3,2.2-.2.5-2.1.2-3.1,0-5.7,0-11.3,0-17,0-1,0-2.1-.4-2.5.8-.4,1.3.9,1.5,1.8,2,.3.1.6.3.9.4,3.7,1.2,8.8,1.8,1.1,5.5-3.1,1.5-2.2,3.9,1.9,5.8,7.4,3.4,13.1,8.4,15.7,16.3,3.3,10,2.6,19.7-2.1,29.6-3.9-6.4-4.1-13.9-9.9-18.4-2.3-1.8-4.9-5.4-7.2-3.8-1.7,1.2,2.1,4.1,3.5,6.1,4.6,6.6,5,23.5.6,30.1-1.9,2.8-3,1.8-4.2-.5-4-7.3-8.8-14.1-13.9-20.6-3.8-4.8-7.1-10-12.1-13.8-1-.7-1.9-2.7-3.2-1.6-1.5,1.4-.3,3,.8,4.3,2,2.4,3.3,5.3,3.9,8.7-13.4-8.5-29-13.5-40.2-26-.4,4,.9,7,3.6,9.4.5.4,1.1.7,1.7,1.1,1.7,1.3,4.1,3.2,3.5,4.8-.9,2.2-3.5.5-5.3,0-5.3-1.5-11.3-.7-15.7-5.2-1.4-1.4-1.8.6-1.7,1.7.3,2.1,2,2.9,3.6,3.8,1.6.8,3.6.8,5,2.8-3.9,3.3-9,4.5-13.2,7.3-11.1,7.5-18.7,17.8-24.9,29.3-1.7,3.3-5,6-4.7,10.2h0c-1,.3-1.1,1.1-1,2h0c-1,.4-1,1.2-1,2h0c-4.4,6.6-4.5,14.4-6,21.7-3.4,16.5-3,33.1.1,49.4,3.3,17.5,9.6,33.5,25.9,43.6,10.7,6.6,22,7.6,34,5.3.5,0,1.5-.5,3.6-.9.4,0,1-.2,1.2,0,.2.3,0,.8-.2,1.3-.7,1.6-1.1,2.3-1.6,3.4-.3.5-.7,1.3-1.1,2.4,9.1-3.2,13.3-10.5,18.7-16.7.6,1,1.3,1.9,2.2,3.3,3.9-5.9,7.7-11.5,12.9-15.9,0,0,.9-1.4,2.8-2.5,1.2-.8,1.5-.6,1.6-.5.2.2.1.7,0,1.4-.4,1.7-.9,2.5-1,3.6-.1.9-.6,1.9-.9,2.9,5.1-2.6,5.8-3.3,13.2-14.1,4.4-6.4,10-10.7,18.1-11.6,5.6-.6,12,4.4,13.3,10.8,0,0,9,16.6-4.4,43.8,0,0-.2.5-.7,1.5-3.2,6.7-4.8,10.1-4.2,10.8.9,1,3.2-1,4.4,0,2,1.7-2.1,9.4-2.7,10.6-4.2,7.9-9.7,12.5-11.7,14.1-2.3,1.8-4,2.8-6.7,4.4-7.3,4.2-13.5,6.4-17.9,7.9-5,1.7-8.9,2.7-10.4,3-4.2,1-7.3,1.5-11.1,2.1-7.8,1.2-15,2.2-24.9,1.9-.8,0-1.4,0-2.3-.1-9.1-.5-17.5-1.6-25.2-3.1-3.5-.7-8.5-1.7-14.9-3.5-5-1.5-8.7-2.9-10.1-3.4-4-1.5-6.9-2.9-8-3.5-3.2-1.6-5.7-2.9-6.9-3.6-2.7-1.5-7.1-4.2-12.2-8.2-2.1-1.6-8.3-6.5-13.6-12.6-2.6-3-4.1-5.3-5-6.9-.9-1.5-1.6-2.8-2-3.8,1.3,0,2.3.3,3,.5,1.5.4,3.1,1.2,3.7,1.5.2,0,.7.4,1.5.7,0,0,.5.2.9.4.9.3,3.1.9,6.1,1.3-6-4.3-10.5-8.8-14.2-11.7-6-4.7-8.7-11.6-12.3-17.9-.3-.6-.6-1.4.2-1.7.5-.2,1.3-.2,1.9,0,1.6.7,3.1,1.5,5.3,1.6-1.7-2.5-3.2-5.2-5.1-7.6-11.9-14.9-12.9-21.5-13.6-27.5-.2-1.7-.2-3.1-.3-3.9ZM941.3,429.7c-7.8,6.2-11.6,13-13.1,21.2-.2.9-.6,2.2.7,2.5,1.2.3,1.6-.8,2-1.7,1.1-2.4,2.3-4.8,3.2-7.2,1.8-4.7,5.8-8.4,7.1-14.8ZM938.8,512.9c-4.9,4.1-7.2,23.2-3.8,26.9.5.5.9,1,1.6.6,1-.5,1.5-1.4,1.3-2.5-.4-2.3-.9-4.5-1-6.9-.2-5.9.5-11.8,1.9-18.2ZM1004.9,658.1c5.1,5.9,19.5,5.6,23.8,0-7.9-.7-15.8,2.8-23.8,0ZM962.2,650.7c-6.5-1.2-12.7-3-18.7-6-1-.5-2.3-1.3-3,0-.6,1,.5,1.9,1.3,2.4,6.2,4.3,12.8,6.9,20.5,3.6ZM947.4,473.2c6.4-4.8,9.7-11.8,12.9-18.8-6.7,4.6-10.9,11-12.9,18.8ZM1086,624.3c-5.4,5-8.2,12.1-14.5,17.4,7.9-1.1,13-7.4,14.5-17.4ZM911.7,488.2c-6.8,4.7-9.1,14.2-4.8,20.7.5-7.4,3.8-13.5,4.8-20.7ZM903.2,551.4c-2.3,8.1.8,17.1,6.8,21.2-2.3-7-4.4-13.6-6.8-21.2Z"/>
    <path class="cls-3" d="M967,490c4.3,3.3-1.8,4-1.8,6.3,0-.8-.2-1.5-.2-2.3,0,0,0,0,0,0,.9-.4,1.1-1.1,1-2,0,0,0,0,0,0,.9-.3,1.1-1.1,1-2h0Z"/>
    <path class="cls-3" d="M888,568c-.1,0-.3-.1-.4-.2.1,0,.3.2.4.2,0,0,0,0,0,0Z"/>
    <path class="cls-3" d="M1268,638c-1.6-8-2.9-12-3.9-14.2-.1-.3-.6-1.3-1.1-2.8-.9-2.5-1.5-4.7-1.8-6.2-.8,2.2-2,5-2.2,8.4-.2,2.9,0,5.9-.3,9.1-9.1-12.9-12.4-27-16.9-41.2-4.5,4.7-.7,9.8-2.2,15.5-7.1-9.7-13.4-18.5-15.6-29.5-.3-1.3.2-3.1-1.4-3.4-1.4-.2-2.1,1.3-2.8,2.5-.2.4-.5,1-.9,1.2-7.2,3.9-5.7,10.6-4.8,16.5,2,12.8-.1,25-2.6,37.4-2.5,12.3-8.6,22.6-16.6,31.9-4.2,4.9-13.1,10.7-19.1,7.6-1.9-1-3.2-2-4.1-4.4-1.8-5-3.3-10.1-5.4-16.3-2.1,5.3-2.6,9.1-.8,13.1.8,1.8,1.7,3.6,1.6,5.7h0c-7.9-1.7-9.2-8.6-10.7-14.7-2.2-9.2-3.5-18.5-3.3-28.1.2-13.1-.5-26.2.3-39.3,1.2-18.3,1.3-36.7,3.4-55,1.2-10.6,1.8-21.4,2.6-32.2,1.5-19,1.7-38.1,3-57.1.8-11.9,1.4-23.8,4-35.5,1.6-7.2,4-14.1,10.9-18.1,14-8.2,26.1,2.9,30.6,13.3,1.6,3.7,1.8,8.2,5.5,11.5,2.1-5,.1-9.5-.7-14-.3-1.6-1.2-3.2-1.3-4.8-.1-1.5-1.1-3.8.8-4.5,1.5-.6,2.9,1.2,4,2.4,9.1,10,14,22,16,35.3,2.3,14.9,1.3,29.9-.2,44.7-.5,5-2.3,10.1-3.4,16.1,5.7-1.7,7.5-6.7,9.7-10.4,10.4-17.4,21.7-34.2,32.5-51.3,8.4-13.2,17.7-25.6,30-35.6,5.8-4.7,12.8-8.7,19.2-8.7,7.7,0,16.7.2,23.5,6,6.2,5.4,8.9,12.5,9.7,20.6,1.4,15.3-6.4,27.1-14.8,38.5-12.2,16.4-28.2,29-42.6,43.2-10,9.9-21.4,18.5-30.2,29.6-1.1,1.4-2.4,2.9-3.9,3.9-4.9,3.1-2.7,5.3.4,8.1,16.8,15.1,33.2,30.7,47.6,48.1,15.3,18.5,29.1,38.2,38.4,60.7,2.5,6.1,4.3,12.6,2,19.3-1.5,4.5-3.7,5.6-7.7,3.3-2.9-1.6-5.6-3.5-8.4-5.3,0,0-.7-.5-2.3-1.1-1.3-.5-1.5-.4-1.6-.3,0,.1,0,.3.5,1.4.7,1.3,1.3,2.3,1.3,2.4.3.5.6.9.9,1.3,2.1,3,2.6,3.4,2.4,4.1-.2.5-.6.7-1.3,1.1-.3.2-1.1.5-2.3.5-1.2,0-2.1-.4-3.4-1-4.2-1.9-3.6-1.6-4.2-1.9-4.9-2.7-8.2-5.9-9-6.7-1.7-1.7-3.3-3.6-3.8-4.5-.3-.4-.6-.8-.8-1.3-.3-.5-.4-.8-.8-1-.3-.2-.5-.2-.7-.2-.7,1.6-.8,2.9-.7,3.8,0,3.4,2.2,7.5,3.2,8.6.2.2.7.7.7,1.5,0,.4-.1.5,0,.9,0,.5.3,1,0,1.3,0,0,0,0,0,0-.5.6-2.2-.2-2.4-.3-.4-.2-.6-.3-1.4-.8-1.3-.8-1.4-.8-2.1-1.2-.3-.2-1.8-1.1-3.3-2.3-1.5-1.3-2.5-2.4-3.1-3.2-5.3-6.4-6.5-6.9-10.1-11.9-.8-1.2-2-3-3.4-5.2-1.2-1.6-1.6-1.9-1.7-1.8-.1,0,.2.7,0,1-.2.2-.4.1-.6.3-.4.3,0,1.2,0,1.4,1.2,3.9.2,6.9,2.5,9.5.3.4,1.5,1.6,1.1,2.5,0,.2-.2.3-.2.5-.1.8,1,1.4.8,1.7-.2.3-2-.4-2.1-.4-.4-.1-.7-.3-1.2-.5-1.1-.6-1.7-.8-2.1-1-1.1-.6-1.7-1.3-3.1-2.6-1.2-1.2-2-2.2-2.2-2.4-1.6-1.9-1.9-2.8-2.9-4.1-.8-1.1-2.1-2.6-4.2-4.1-.7-1.7-1.3-3.4-2-5ZM1166.9,521.9c-1.4,5.7-1.6,11.4,0,17.2.2,1.2.4,2.5,2.1,3,0-7,0-13.8,0-20.5,0-.8.2-2.3-1.4-1.8-.4.1-.5,1.4-.7,2.2ZM1315,604c0,.1,0,.2.1.3,0,0,.2,0,.3,0-.1-.1-.3-.3-.4-.4.7-6.4-4.5-9-8.2-12.5-.6-.6-1.6-.7-2.2,0-.6.8.2,1.5.6,2.1,2.9,3.8,5.8,7.6,9.8,10.3ZM1173.4,437.5c-4.9,7.2-.8,27.5,5.9,31-1.9-10.2-3.9-20.4-5.9-31ZM1322.8,618.6c1.6,10.3,9.6,16.4,15.5,23.8-3.6-9-7.9-17.5-15.5-23.8ZM1202.9,616.5c-1.4-5.5-2-11.1-5.8-15.4-.7-.8-1.3-2.4-2.6-1.5-1,.7-.5,2.2,0,3.2,2.9,4.7,2.8,10,3.5,15.2.2,1.6-1.1,4.3,1.4,4.6,2.3.3,2.2-2.4,2.8-4,.3-.8.5-1.6.6-2.1ZM1326,401.2c-3.9,8.8-10.3,14.1-16,20.5,8.6-.1,17.9-12.1,16-20.5ZM1178.6,397.2c-2.9,11-1.8,19.5,3,24.4,1.4-8.3-.8-15.9-3-24.4ZM1341.1,414.3c-6.4,5.1-11.3,11.7-17.8,16.6,8.6-2.7,16-6.7,17.8-16.6ZM1189.9,643.2c-.1-.9.7-2.4-.9-2.7-1.5-.3-1.7,1.2-2.1,2.3-1.4,4-2.9,8.1-4.3,12.1-.3.9-.9,2,.1,2.6,1.1.6,1.8-.5,2.4-1.2,2.8-3.8,3.7-8.4,4.8-13ZM1170.5,488.1c-.7,6.5-.8,12.9,4.4,19.2.2-7.6-1.5-13.5-4.4-19.2ZM1217.8,500.4c3.8-5.5,4.3-11.5,4.2-17.8-4,5.4-4.7,11.5-4.2,17.8ZM1343.4,407.8c-1,1.2-3.6.8-3.1,3.2.3,1.2,1.7,2.1,2.7,1.5,1.8-1,.9-2.9.4-4.7Z"/>
    <path class="cls-3" d="M1167,668.9c.1.2.2.3.4.5-.2-.1-.3-.2-.5-.4,0,0,0,0,0,0Z"/>
    <path class="cls-3" d="M1634.5,597.6c3.3,9.9,0,19.2-3.1,27.9-8.2,22.1-25,35-47.8,39.1-12.7,2.3-25.6.8-36.7-7.2-1.7-1.3-3.1-2.9-4.2-4.8-6.3-10.4-8.4-21.8-8.9-33.8-.4-11.3,1.4-22.5,1-35.1-5.1,7.2-7.9,14.3-11.1,21-10,21.2-23.4,39.6-47,46.5-27.5,8.1-53.7,3.7-76.7-14-13.1-10.1-20.3-24.3-23.3-40.6-2.4-13.3-3.4-26.6-2.9-40.1.6-18.3,4.3-36.2,9.1-53.7,8-29.3,19.3-57.3,37.9-81.7,8.1-10.6,16.6-21.2,28.9-27.7,9.4-5,19.3-8.4,29.8-10.7,4-.9,8-1.2,12-2.2,2.6-.6,5.5.5,8.3.4,15.2-.3,30.2.3,44.7,5.1,17.6,5.8,31.8,16.1,42.3,31.5,10,14.7,14.4,31.1,13.7,48.4-.9,21.4-11.2,39-31.7,42.9-25.8,5-38.3-4.2-47.9-27.7-2.1-5.2-3.3-10.7-5-16.1-1.7-5.6-5.1-10-9.4-13.8-1.3-1.1-2.7-2.1-4.4-2.2-11.6-1.1-22.3,0-31.5,8.6-12,11.2-21.5,23.9-27,39.4-4.9,13.7-8.1,27.7-4.9,42.2,3.5,16.1,20.5,26.3,36.6,23,21.6-4.4,34.4-18.2,41.5-38.1,2.1-5.9,4.5-11.8,4-18.4,0-.8-.2-1.8.6-2.2,1.4-.6,2,.8,2.8,1.5,11.1,10.2,24,15.6,39.3,15,2.5-.1,4.7-1,7.1-1.4,6.7-1.3,8.8-.4,10.9,5.9,2.6,7.8,4.2,15.7,3.7,24.3-.8,12.2-2.2,24.6.5,36.6,1.8,8,3.7,16.2,11.3,21.6,9.7,6.8,24.7,4.7,31.6-5,1.4-1.9,2.7-3.7,5.7-4.5ZM1471.9,405c-6.8,1.4-13.4,9.1-13.7,17.2,5.7-5.6,9.9-11.2,13.7-17.2,0-.1.1-.3.2-.4,0,.1-.2.3-.2.4ZM1415.9,468c-9.7,4.4-16.3,22.3-11,30.5.4-.6.8-1.1,1-1.7,3.1-9.2,4.4-19,10.1-27.3.2-.3,0-1,0-1.5.1-.2.3-.3.4-.5-.2.1-.3.3-.5.4ZM1574.9,493c7.3-1.1,9.9-7.2,12.9-12.6,7-12.5,5.4-35.3-9.6-43.7-.5.8,0,1.6.1,2.4,3.8,12.3,6,24.8,2.3,37.5-1.6,5.5-3.9,10.9-5.9,16.4-.1.1-.3.3-.4.4.2-.1.3-.3.5-.4ZM1537.5,458.6c-1.6.6-2.1,2-2.3,3.2-2.3,10-1.8,19.8,3.6,28.8,2.1,3.5,4.3,7.1,8.6,8.6,1.8.6,3.8,1.7,5.1,0,1.3-1.7-.3-3.5-1.5-4.8-6.9-7.4-9.2-16.6-11-26-.6-3.3,0-6.9-2.3-9.8ZM1415.9,625.6c-5-3.5-9.6-6.4-13.2-10.5-3.6-4.1-6.5-8.8-8.7-13.9-.4-.9-.9-2-2.1-1.8-1.6.4-1.2,1.9-1,2.9,1.5,7.6,5,14.1,11.3,18.7,3.7,2.7,7.6,5.8,13.7,4.5ZM1395.3,565.3c-4.4-12.3-3-23.9-2.2-36.2-7,5.8-7.2,30.1,2.2,36.2ZM1437.2,617.5c-7.7-4.5-15.4-7.1-19.7-14.4-.4-.6-1.3-1.3-2.1-.4-.7.7-.2,1.5,0,2.3,2.6,7.3,11.1,14.5,21.7,12.5ZM1444.8,421.4c-6.7-.2-15,12.6-14.2,21.1,5.8-6.2,8.6-14.1,14.2-21.1ZM1464,630.9c3.9-.9,7.6-2.4,10.8-4.9.8-.6,2.1-1,1.6-2.1-.6-1.5-1.9-.9-3-.6-4.4,1.1-8.5,3.4-13.4,2.8-2.2-.3-1.9,1.3-.8,2.5,1.3,1.4,2.9,2.1,4.9,2.3ZM1563.7,647.7c-6.3-4.8-9.9-10.1-11.7-17.1-3.9,7.5,2.3,17.2,11.7,17.1ZM1492.2,628.1c7-1,15.5-8.9,16.4-15-6.2,4.6-11.7,9.3-16.4,15ZM1598.3,645.4c-2.3-.1-4.5.9-6.8.5-2.4-.5-4.8-1.2-7.2-1.7-1-.2-2.3-.6-2.8.3-.8,1.3.5,2.1,1.4,2.8,3.5,2.9,11,2.2,15.4-1.9Z"/>
    <path class="cls-6" d="M1513.1,496.1c-.5,18.9-5.6,34.1-17.6,46.6-9.4,9.8-23.1,13.4-34.1,8.9-8.6-3.6-13.8-10.2-13.8-19.5,0-27.9,9.9-51.6,31.1-70,4.9-4.2,11.3-5.7,17.8-4.7,3.4.5,6,2.6,7.7,5.7,5.8,10.9,8.9,22.4,8.9,33Z"/>
    <path class="cls-3" d="M783.1,512.2c11,7.9,22.3,10.9,34.5,7.5,4.5-1.2,6.1,1.2,7,4,1.6,5,3.7,9.9,3.4,15.4-.5,8.1-.2,16.2-.8,24.4-1,13.4-.1,26.9,3,40,1.6,6.6,4.5,12.8,10.6,16.9,9.1,6,22,3,27.8-5.3.9-1.4,1.3-4.3,3.4-3.6,1.8.6,1.9,3.3,1.9,5.2-.5,26.5-17.8,52.4-45.2,56.8-14.9,2.4-28.2-1.9-36.8-15.4-3.6-5.7-5-12.4-6.1-19.2-1.9-11.7,1.2-23.2.2-34.8,0-.8-.1-1.6-1-2.6-1.3,3.4-2.8,6.7-3.8,10.2-4.6,15.2-11.5,29.3-21.8,41.5-5.8,6.9-13.2,11.6-21.4,15-10,4.1-20.6,6.5-31.5,5.5-8.4-.7-17.5-.5-25.1-3.7-11.7-4.9-22.2-12.1-29.6-23.4-9.5-14.5-13.2-30.5-15.6-47.2-2.1-14.9-2.1-30.1-1-45,.9-11.7,3.6-23.4,6.5-34.9,5.3-20.8,13.1-40.7,23.4-59.6,12-21.8,26.4-41.3,48.5-54.3,13.7-8,28.3-11.8,43.8-12.7,13.7-.8,27,.6,40.1,5.7,14.2,5.6,24.3,15.4,31.8,28.1,7.8,13,11.3,27.3,10.6,42.4-.6,11.8-3.1,23.3-11.4,32.2-7.3,7.9-17,11.2-27.7,9.1-9.9-1.9-15.4-9.2-18.7-18.2-2.5-6.8-4-14.1-7.6-20.4-3.8-6.6-8.2-12.5-16.6-13.5-5.2-.6-10.4.2-14.9,2.7-13.7,7.5-22.8,19-28.9,33.1-3.2,7.3-4.3,15.2-6.4,22.8-2.3,8.4-2.8,16.5-2.5,24.9.5,12.6,3.5,24.1,14.2,32.6,8.7,6.9,24.8,8.3,34.6,2.3,15.1-9.4,21.8-24.1,26.1-40.3,2-7.7,3.3-15.5,3.1-24.3ZM665,498c-4.6.6-5.3,4.7-6.4,8-2,5.9-3.3,12,1.6,17.7,1.9-2.7.3-5.2.4-7.5.4-6.4,3.1-12.1,4.4-18.2,0-.1.1-.3.2-.4,0,.1-.1.3-.2.4ZM818,493.9c2.7-.5,4.5-1,5.8-2.2,11.7-10.8,11.8-29.2,4.5-40.7-.5-.8-1.2-1.8-2.3-1.5-1.3.3-.9,1.6-1,2.5-.5,3.4.9,6.5,1,9.8.2,11.1-1.7,21.7-8,32.1ZM652.2,623.2c2.6,10.4,6.7,19.2,16.7,23.7,1.1.5,2.6,1.8,3.6.4,1.2-1.6-.7-2.2-1.6-3-5.8-5.2-11.4-10.6-15-17.8-.6-1.2-1-2.9-3.7-3.3ZM789.5,473.2c-2.7,4.7-1.7,8.8-.3,12.6,1.9,5.1,3,11,9.1,13.4,1.1.4,2.3,1.3,3.1,0,.7-1-.6-1.7-1.1-2.5-1.8-2.8-3.3-5.7-5.2-8.4-3.1-4.4-2.8-10.1-5.6-15.2ZM681.8,467c2.2-6.5,4.2-12.2,6.9-17.7,1.2-2.3,5.4-5.5,2.3-7.4-2.2-1.4-4.8,3.3-6.1,6-2.7,5.7-7.2,11.3-3.1,19.1ZM651.6,558.4c-5,6.8-6.2,18.3-2.9,24.8.5,1,1,2.5,2.3,2.2,1.8-.5,1.1-2.3.9-3.4-.6-2.8-.8-5.5-.9-8.3-.2-5,2.1-9.8.6-15.3ZM816.3,659.9c0-1-.8-.9-1.3-1-3.7-.5-5.7-3.2-7.9-5.7-1.9-2.1-3.3-4.5-5-6.8-.5-.6-1-1.4-2-1.1-1,.3-1,1.3-.9,2.1.6,5.6,9.7,14,15.1,14.1,1.4,0,1.8-.6,2.1-1.7ZM698.9,449.2c5.1-7.4,10-14.4,15.2-22-7.2,1.6-15.9,14.5-15.2,22ZM763.6,624.7c-5.4,4.9-7.3,11.4-11.8,16-.6.6-1.8,1.3-.9,2.4,1.1,1.3,2.1.4,2.9-.4,4.9-4.7,9.5-9.5,9.7-17.9ZM712.6,647.3c4.8,4.2,16.7,2.8,20.5-2.2.3-.4.5-1,.4-1.3-.4-1-1.3-.9-2.1-.5-5.9,3-12.4,2.7-18.8,4ZM781,407.9c-7.2-6.6-17.9-7.2-20.8-1.5,6.8-1,13.3,1.7,20.8,1.5ZM691.2,635.4c-5.6-3.5-10.6-6.6-14.5-11.2-.5-.6-1.3-1.3-2.1-.6-.8.6-.3,1.5,0,2.3,1.8,5.3,10,10.3,16.6,9.5ZM828.5,655.9c4.4,5.9,12.4,5.1,17.9-2.1-6.3,2.1-11.9,2.4-17.9,2.1Z"/>
    <path class="cls-6" d="M714.9,536.2c.3-19,5.3-36.8,16-52.6,5.1-7.5,11-14.7,21.2-15.8,5.6-.6,9.6,1.5,12.7,6.1,7.8,11.6,10.3,24.7,10.2,38.4-.1,14.6-3.4,28.5-10.5,41.6-3.4,6.3-8.4,10.9-13.9,14.6-11.2,7.5-26.5,2.3-32-10.2-3.1-7-3.7-14.4-3.6-22Z"/>
    <path class="cls-3" d="M430.2,676.8c-8.5.8-16.9,3.1-26.7.9,7-2.8,14.2-2.7,19.1-9.7-5.9.9-10.7,2.4-15.8,2.1-18.3-1.4-32.5-9.5-41.6-25.7-.9-1.6-1.3-3.4-1.3-5.3,0-.2,0-.3.2-.4.1,0,.2,0,.3,0,3.2.8,4.5,3.8,6.7,5.7,2.7,2.3,5.5,3.9,8.6,4.7.8.2,5.7,1.6,11.4.1,2.1-.6,4.9-1.7,4.8-2.4,0-.2-.4-.3-1.4-.7-2-.7-1.3-.6-3.1-1.3-1.9-.7-3.9-1-5.7-1.7-16.8-6.6-23.3-20.5-25.2-37-.6-4.8,1.3-10,2.3-16.6,5.7,10.2,10.7,19.1,24.3,18.8-5.5-4.7-10.7-8.4-12.9-14.5,9.8,0,16.9-5.1,23-12,11-12.4,16.5-27.9,22.9-42.8,11.4-26.2,21.5-52.8,32.6-79.1,11.7-27.8,25.2-54.5,40.7-80.3,6.9-11.5,15.6-21.7,27.3-28.6,15.6-9.2,39-10.6,55,.3,4.4,3,7.4,7.6,10.6,11.8,8.3,11,10.6,24,13,37.1,2.7,14.8,2.3,29.6,1.7,44.4-.6,15.1-1.2,30.1-2.4,45.2-1.4,17.7-1.5,35.5-1.1,53.2.2,8.2-.3,16.4.7,24.6,1.4,11.6,2.3,23.2,4.4,34.8,1.6,8.4,2.4,16.9,4.5,25.2,3.5,14.3,8.1,28.1,18,39.4,2.4,2.8,1.8,4.1-.8,5.8-19.5,11.9-40.2,13.4-61.2,5.6-15.6-5.8-23.9-19.2-29.8-34.1-5.8-14.8-8-30.4-9.1-46.1-2.1-28.3-.9-56.6-.6-84.9.1-13.9,1-27.8,1.6-41.8.2-4.3-.9-8.6-1.9-12.9-5.1,13-6.5,26.7-10,39.9-2.9,11-5.6,22.1-8.3,33.2-1.6,6.6-3.5,13.1-4.6,19.8-1.2,7.9-4.4,15-6.7,22.5-3.8,11.9-8.4,23.5-13.7,34.7-8.9,18.8-19,36.9-33.3,52.4-5.1,5.6-11.3,10-16.4,15.7ZM468.1,460.1c.4-.3.7-.6,1.1-.9,4.6-1.4,6.3-5.7,9.1-8.8,5.1-5.8,10.4-11.6,12.7-19.3.3-1,1.4-2.4,0-3.1-1.4-.8-2.1.6-3,1.7-4.7,5.8-7.7,12.7-12.1,18.7-2.5,3.4-5.8,6.4-6.9,10.8-.3.3-.6.7-1,1-.1.2-.3.3-.4.5.1-.1.3-.3.4-.4ZM580.1,390c-.1,0-.3-.2-.4-.2.1,0,.3.2.4.2,0,.5-.1,1.1,0,1.5,5.1,10.8,8.7,22.1,10.6,33.9.4,2.1.4,4.5,2.4,6.1.4-.4.7-.7.7-.9,1.3-14.2-3.4-26.7-10.6-38.6-.7-1.2-1.8-2-3.3-2ZM481.1,426.1c1.5-1.5,3.3-2.8,4.5-4.6,6.2-8.4,12.3-16.8,18.2-25.4,2.2-3.1,5.7-5.1,7.4-9.5-6,2.9-11,6.2-14.8,10.8-7.1,8.4-12.8,17.7-15.5,28.5-.6.1-1.3.2-1.4,1.1,0,.2.4.6.6.6.8,0,.9-.8,1-1.4ZM575.4,435.9c3.6,14.9,6.4,29.9,5.6,45.7,8.3-7.4,2.3-37.1-5.6-45.7ZM536.5,589.5c-4.3,10.3.2,35.1,8.1,42.6-2.5-7.6-3.5-14.4-4.4-21.1-1-7-1.3-14.1-3.6-21.4ZM445.4,643.1c-5.4,4.6-9.9,9.8-15.5,13.9-6,4.4-12.7,5.7-20.1,6.3,12.8,5.6,33.3-6,35.6-20.2ZM485,569.1c-4,2.7-4.2,6.7-5.8,9.8-3.4,6.9-8.4,12.5-13,18.5-.7.9-1.8,1.9-.6,3,.9.8,1.9-.1,2.7-.6,1-.6,1.8-1.4,2.7-2.2,8.2-7.4,12.5-16.7,14-28.5ZM441.8,517.5c8.9-10.2,17.8-20.5,26.4-31.1-12.3,7.4-21.3,17.6-26.4,31.1ZM579.8,668.9c-11.2-4.2-16.5-13.9-22.3-24.5-1.2,13.3,10.1,25.4,22.3,24.5ZM576.6,569.6c.3,8.5,3.6,15.9,8.3,22.7.5.8,1.4,1.8,2.5,1.1.9-.6.6-1.8.4-2.7-1.9-8-6.1-14.7-11.2-21.1ZM578.2,512.7c2.1,4.4,2.8,9.2,3.6,13.8.8,4.7.2,9.6.3,14.4,0,1-.5,2.6,1.3,2.7,1.1,0,1.5-1.1,1.8-2.1,2.2-9.4.6-18.2-3.9-26.6-.4-.8-.8-2.7-3-2.1ZM530.1,356.3c-6.9,3.4-13.3,7.2-17,14.2-.4.7-1.2,1.3-.4,2.2.5.6,1.4.5,1.8,0,4.4-6.2,11.6-9.7,15.6-16.3Z"/>
    <path class="cls-2" d="M443.8,674.7"/>
    <path class="cls-6" d="M368.5,515.8c-2.7,5.9-6.8,9.4-9.1,14.2-5.6,11.5-9.8,23.4-10.3,36.2-.2,5.3,1.1,10.5,4.1,14.6,2.6,3.6,2.3,7.1,1.7,10.7-.8,5.4-2.5,19,1.6,29.4.9,2.2,2.8,6.4,2.2,6.8-.2.1-.6-.2-2.2-1.3-2-1.3-3.1-2-3.5-1.8-1.1.5,0,5.2.4,6.5,2.1,8.3,3.1,12.4,4.9,15.8,5.2,9.9,13.8,17.2,24.5,22.9,3.9,2.1,7.6,3.8,7.6,3.8.5.2.9.3,1.1.4-.6.3-1.3.6-2.1.8-2.5.5-4.5-.2-5.4-.6q2.6,4.4,26.3,11.6c-53.4,21.6-114.9-5.9-126.7-61.3,5.3,11.2,12.6,20.3,25.6,23.2-13.9-14.3-21.5-31.1-21.2-50.9.3-19.4,4.7-37.4,20.5-51.1-.8,7.5-4.7,14.2-5.3,21.7-.9,11.4,2.3,21.3,10.5,29.3.8.8,2,1.5,3.2.9,1.5-.8.6-2,.3-3-3-10.9-4.4-22.2-1.1-32.9,5.9-19.1,17.2-33.9,37.1-40.6,4.7-1.6,9.3-3.2,15.1-5.3ZM358.1,681l-.4-.2c.1,0,.3.2.4.2,3.6,4.1,13.8,4.4,19.8,0-7.1,0-13.4,0-19.8,0ZM353.2,661.9c-1.3-2.8-28.4-19.3-33.2-20.4,8.6,10.1,19.4,16.6,33.2,20.4Z"/>
    <path class="cls-4" d="M941.3,429.7c-1.4,6.5-5.4,10.1-7.1,14.8-.9,2.5-2.2,4.8-3.2,7.2-.4.9-.8,2.1-2,1.7-1.3-.4-.9-1.6-.7-2.5,1.5-8.2,5.3-15.1,13.1-21.2Z"/>
    <path class="cls-4" d="M938.8,512.9c-1.4,6.4-2.1,12.2-1.9,18.2,0,2.4.6,4.6,1,6.9.2,1-.3,2-1.3,2.5-.7.4-1.2,0-1.6-.6-3.4-3.7-1.1-22.8,3.8-26.9Z"/>
    <path class="cls-4" d="M1004.9,658.1c8,2.8,15.8-.8,23.8,0-4.2,5.7-18.7,6-23.8,0Z"/>
    <path class="cls-4" d="M962.2,650.7c-7.7,3.3-14.2.8-20.5-3.6-.8-.5-1.8-1.4-1.3-2.4.8-1.3,2.1-.5,3,0,5.9,3,12.1,4.8,18.7,6Z"/>
    <path class="cls-4" d="M947.4,473.2c2-7.8,6.2-14.1,12.9-18.8-3.2,7-6.5,14-12.9,18.8Z"/>
    <path class="cls-4" d="M1086,624.3c-1.5,10-6.7,16.3-14.5,17.4,6.4-5.3,9.2-12.4,14.5-17.4Z"/>
    <path class="cls-4" d="M911.7,488.2c-1,7.1-4.3,13.3-4.8,20.7-4.3-6.5-2-16,4.8-20.7Z"/>
    <path class="cls-4" d="M903.2,551.4c2.4,7.5,4.5,14.1,6.8,21.2-6-4.1-9-13.1-6.8-21.2Z"/>
    <path class="cls-4" d="M967,490c0,.9,0,1.6-1,2,0-.9,0-1.6,1-2Z"/>
    <path class="cls-4" d="M966,492c.1.9,0,1.6-1,2,0-.8,0-1.7,1-2Z"/>
    <path class="cls-4" d="M896,576c.3.4.5.7.8,1.1l-.4.3c-.1-.5-.3-.9-.4-1.4,0,0,0,0,0,0Z"/>
    <path class="cls-4" d="M1173.4,437.5c2,10.6,3.9,20.8,5.9,31-6.7-3.4-10.8-23.8-5.9-31Z"/>
    <path class="cls-4" d="M1322.8,618.6c7.6,6.3,12,14.8,15.5,23.8-6-7.4-13.9-13.5-15.5-23.8Z"/>
    <path class="cls-4" d="M1202.9,616.5c-.2.5-.4,1.3-.6,2.1-.6,1.6-.5,4.3-2.8,4-2.6-.3-1.2-3-1.4-4.6-.6-5.2-.6-10.5-3.5-15.2-.6-1-1.1-2.5,0-3.2,1.3-.9,1.8.6,2.6,1.5,3.7,4.3,4.3,9.9,5.8,15.4Z"/>
    <path class="cls-4" d="M1326,401.2c1.9,8.3-7.4,20.4-16,20.5,5.7-6.4,12.1-11.7,16-20.5Z"/>
    <path class="cls-4" d="M1178.6,397.2c2.3,8.4,4.5,16,3,24.4-4.8-4.9-5.9-13.3-3-24.4Z"/>
    <path class="cls-4" d="M1341.1,414.3c-1.8,9.9-9.2,13.9-17.8,16.6,6.5-4.9,11.4-11.5,17.8-16.6Z"/>
    <path class="cls-4" d="M1189.9,643.2c-1.1,4.6-1.9,9.2-4.8,13-.6.8-1.3,1.8-2.4,1.2-1.1-.6-.5-1.7-.1-2.6,1.5-4,2.9-8.1,4.3-12.1.4-1.1.6-2.6,2.1-2.3,1.6.3.8,1.9.9,2.7Z"/>
    <path class="cls-4" d="M1170.5,488.1c2.9,5.7,4.6,11.6,4.4,19.2-5.2-6.3-5.2-12.7-4.4-19.2Z"/>
    <path class="cls-4" d="M1217.8,500.4c-.5-6.3.2-12.4,4.2-17.8.1,6.2-.4,12.3-4.2,17.8Z"/>
    <path class="cls-4" d="M1315,604c-4-2.7-6.9-6.5-9.8-10.3-.5-.6-1.2-1.3-.6-2.1.6-.8,1.6-.7,2.2,0,3.7,3.5,8.9,6.1,8.2,12.5h0Z"/>
    <path class="cls-4" d="M1166.9,521.9c.2-.8.3-2,.7-2.2,1.6-.5,1.4,1,1.4,1.8,0,6.8,0,13.5,0,20.5-1.7-.5-1.8-1.8-2.1-3v-.2c.2-2.7.2-5.5.1-8.4,0-2.9,0-5.8-.2-8.6Z"/>
    <path class="cls-4" d="M1166.9,539.1c-1.6-5.7-1.5-11.4,0-17.2,0,0,.2.3.2.2,0,5.6,0,11.2,0,16.7v.2Z"/>
    <path class="cls-4" d="M1343.4,407.8c.4,1.9,1.4,3.8-.4,4.7-1,.5-2.4-.3-2.7-1.5-.5-2.4,2.1-2,3.1-3.2Z"/>
    <path class="cls-4" d="M1314.9,604c.1.1.3.3.4.4,0,0-.2,0-.3,0,0,0-.1-.2-.1-.3,0,0,0,0,0,0Z"/>
    <path class="cls-4" d="M1574.9,493c2-5.4,4.2-10.8,5.9-16.4,3.7-12.7,1.5-25.2-2.3-37.5-.2-.8-.7-1.5-.1-2.4,15,8.4,16.5,31.2,9.6,43.7-3,5.4-5.6,11.5-12.9,12.6h0Z"/>
    <path class="cls-4" d="M1537.5,458.6c2.4,2.9,1.7,6.6,2.3,9.8,1.9,9.5,4.2,18.7,11,26,1.2,1.3,2.8,3.1,1.5,4.8-1.2,1.6-3.3.5-5.1,0-4.3-1.5-6.4-5.1-8.6-8.6-5.4-9-5.9-18.7-3.6-28.8.3-1.2.7-2.6,2.3-3.2Z"/>
    <path class="cls-4" d="M1415.9,625.6c-6.1,1.3-9.9-1.8-13.7-4.5-6.3-4.6-9.8-11.1-11.3-18.7-.2-1-.5-2.6,1-2.9,1.1-.3,1.7.9,2.1,1.8,2.2,5.1,5.1,9.7,8.7,13.9,3.6,4.1,8.2,7,13.2,10.5Z"/>
    <path class="cls-4" d="M1416,468c0,.5.2,1.1,0,1.5-5.7,8.2-7,18.1-10.1,27.3-.2.6-.6,1.1-1,1.7-5.3-8.2,1.3-26,11-30.5h0Z"/>
    <path class="cls-4" d="M1395.3,565.3c-9.4-6.1-9.2-30.4-2.2-36.2-.8,12.3-2.2,23.9,2.2,36.2Z"/>
    <path class="cls-4" d="M1437.2,617.5c-10.6,2-19.1-5.2-21.7-12.5-.3-.8-.7-1.6,0-2.3.8-.9,1.7-.2,2.1.4,4.3,7.3,12,9.9,19.7,14.4Z"/>
    <path class="cls-4" d="M1444.8,421.4c-5.6,7-8.5,14.9-14.2,21.1-.8-8.5,7.5-21.3,14.2-21.1Z"/>
    <path class="cls-4" d="M1464,630.9c-1.9-.2-3.6-.9-4.9-2.3-1.1-1.2-1.4-2.8.8-2.5,4.9.6,9-1.7,13.4-2.8,1.1-.3,2.4-.9,3,.6.5,1.2-.9,1.6-1.6,2.1-3.2,2.5-6.8,4-10.8,4.9Z"/>
    <path class="cls-4" d="M1563.7,647.7c-9.5,0-15.6-9.5-11.7-17.1,1.9,7,5.4,12.2,11.7,17.1Z"/>
    <path class="cls-4" d="M1492.2,628.1c4.6-5.7,10.1-10.3,16.4-15-.9,6.1-9.3,14-16.4,15Z"/>
    <path class="cls-4" d="M1471.9,405c-3.8,6-8.1,11.7-13.7,17.2.4-8.1,6.9-15.8,13.7-17.2h0Z"/>
    <path class="cls-4" d="M1598.3,645.4c-4.5,4.1-11.9,4.8-15.4,1.9-.9-.7-2.2-1.5-1.4-2.8.5-.9,1.8-.6,2.8-.3,2.4.6,4.8,1.2,7.2,1.7,2.3.5,4.5-.6,6.8-.5Z"/>
    <path class="cls-4" d="M1471.9,405c0-.1.2-.3.2-.4,0,.1-.1.3-.2.4,0,0,0,0,0,0Z"/>
    <path class="cls-4" d="M1415.9,468c.2-.1.3-.3.5-.4-.1.2-.3.3-.4.5,0,0,0,0,0,0Z"/>
    <path class="cls-4" d="M1574.9,493c-.2.1-.3.3-.5.4.1-.1.3-.3.4-.4,0,0,0,0,0,0Z"/>
    <path class="cls-4" d="M818,493.9c6.4-10.4,8.2-21,8-32.1,0-3.3-1.5-6.5-1-9.8.1-.9-.3-2.2,1-2.5,1.1-.3,1.8.7,2.3,1.5,7.2,11.5,7.2,29.9-4.5,40.7-1.4,1.3-3.1,1.7-5.8,2.2Z"/>
    <path class="cls-4" d="M652.2,623.2c2.7.4,3.1,2.1,3.7,3.3,3.6,7.1,9.2,12.5,15,17.8.9.8,2.8,1.4,1.6,3-1,1.4-2.5.1-3.6-.4-10.1-4.6-14.1-13.3-16.7-23.7Z"/>
    <path class="cls-4" d="M789.5,473.2c2.8,5.2,2.5,10.8,5.6,15.2,1.9,2.7,3.5,5.6,5.2,8.4.5.8,1.8,1.5,1.1,2.5-.8,1.2-2,.3-3.1,0-6.1-2.4-7.3-8.2-9.1-13.4-1.4-3.8-2.4-8,.3-12.6Z"/>
    <path class="cls-4" d="M681.8,467c-4.1-7.8.4-13.4,3.1-19.1,1.3-2.7,3.9-7.3,6.1-6,3.2,2-1.1,5.1-2.3,7.4-2.8,5.5-4.7,11.2-6.9,17.7Z"/>
    <path class="cls-4" d="M651.6,558.4c1.5,5.5-.8,10.3-.6,15.3.1,2.8.3,5.6.9,8.3.2,1.1.9,2.9-.9,3.4-1.3.3-1.8-1.2-2.3-2.2-3.4-6.5-2.1-18.1,2.9-24.8Z"/>
    <path class="cls-4" d="M665,498c-1.3,6.1-4,11.8-4.4,18.2-.1,2.4,1.5,4.8-.4,7.5-4.9-5.7-3.5-11.8-1.6-17.7,1.1-3.2,1.7-7.3,6.4-8h0Z"/>
    <path class="cls-4" d="M816.3,659.9c-.3,1.1-.7,1.7-2.1,1.7-5.4,0-14.6-8.5-15.1-14.1,0-.8-.1-1.8.9-2.1,1-.3,1.5.5,2,1.1,1.7,2.2,3.1,4.7,5,6.8,2.2,2.4,4.3,5.2,7.9,5.7.6,0,1.4,0,1.3,1Z"/>
    <path class="cls-4" d="M698.9,449.2c-.7-7.4,8.1-20.3,15.2-22-5.3,7.6-10.1,14.6-15.2,22Z"/>
    <path class="cls-4" d="M763.6,624.7c-.3,8.4-4.8,13.2-9.7,17.9-.9.8-1.9,1.7-2.9.4-.9-1.1.3-1.7.9-2.4,4.4-4.6,6.3-11,11.8-16Z"/>
    <path class="cls-4" d="M712.6,647.3c6.4-1.3,13-1,18.8-4,.7-.4,1.7-.5,2.1.5.1.3-.1,1-.4,1.3-3.7,5-15.7,6.4-20.5,2.2Z"/>
    <path class="cls-4" d="M781,407.9c-7.5.1-14-2.5-20.8-1.5,2.9-5.7,13.6-5.1,20.8,1.5Z"/>
    <path class="cls-4" d="M691.2,635.4c-6.6.8-14.8-4.2-16.6-9.5-.3-.8-.7-1.7,0-2.3.8-.7,1.6,0,2.1.6,3.8,4.6,8.9,7.7,14.5,11.2Z"/>
    <path class="cls-4" d="M828.5,655.9c6,.3,11.6,0,17.9-2.1-5.4,7.2-13.5,7.9-17.9,2.1Z"/>
    <path class="cls-4" d="M665,498c0-.1.1-.3.2-.4,0,.1-.1.3-.2.4,0,0,0,0,0,0Z"/>
    <path class="cls-4" d="M480.9,425.9c2.8-10.8,8.4-20,15.5-28.5,3.9-4.6,8.8-7.9,14.8-10.8-1.7,4.4-5.2,6.4-7.4,9.5-5.9,8.6-12.1,17-18.2,25.4-1.3,1.7-3,3-4.5,4.6l-.2-.2Z"/>
    <path class="cls-4" d="M575.4,435.9c8,8.6,13.9,38.3,5.6,45.7.8-15.9-2-30.8-5.6-45.7Z"/>
    <path class="cls-4" d="M580.1,390c1.5,0,2.6.8,3.3,2,7.2,11.9,11.9,24.4,10.6,38.6,0,.3-.4.5-.7.9-2-1.6-2.1-4-2.4-6.1-2-11.8-5.5-23.1-10.6-33.9-.2-.4,0-1,0-1.5h0Z"/>
    <path class="cls-4" d="M536.5,589.5c2.4,7.3,2.6,14.4,3.6,21.4,1,6.8,2,13.6,4.4,21.1-7.9-7.5-12.3-32.2-8.1-42.6Z"/>
    <path class="cls-4" d="M445.4,643.1c-2.3,14.2-22.8,25.8-35.6,20.2,7.4-.6,14.1-1.9,20.1-6.3,5.6-4.1,10.1-9.2,15.5-13.9Z"/>
    <path class="cls-4" d="M485,569.1c-1.4,11.8-5.8,21.1-14,28.5-.9.8-1.7,1.6-2.7,2.2-.8.5-1.8,1.4-2.7.6-1.2-1.1-.1-2.1.6-3,4.6-6,9.6-11.6,13-18.5,1.5-3.1,1.7-7.1,5.8-9.8Z"/>
    <path class="cls-4" d="M469,458.9c1.1-4.4,4.4-7.3,6.9-10.8,4.4-6,7.4-12.9,12.1-18.7.9-1.1,1.6-2.5,3-1.7,1.4.7.3,2.2,0,3.1-2.3,7.7-7.6,13.5-12.7,19.3-2.8,3.2-4.5,7.5-9.1,8.8,0,0-.2-.2-.2-.2Z"/>
    <path class="cls-4" d="M441.8,517.5c5.1-13.5,14.1-23.7,26.4-31.1-8.6,10.6-17.4,20.9-26.4,31.1Z"/>
    <path class="cls-4" d="M579.8,668.9c-12.2.9-23.5-11.2-22.3-24.5,5.8,10.6,11,20.3,22.3,24.5Z"/>
    <path class="cls-4" d="M576.6,569.6c5.1,6.4,9.4,13.1,11.2,21.1.2,1,.5,2.2-.4,2.7-1.1.7-1.9-.4-2.5-1.1-4.8-6.8-8.1-14.2-8.3-22.7Z"/>
    <path class="cls-4" d="M578.2,512.7c2.3-.6,2.6,1.3,3,2.1,4.5,8.4,6.1,17.2,3.9,26.6-.2,1-.7,2.2-1.8,2.1-1.7,0-1.2-1.7-1.3-2.7,0-4.8.5-9.7-.3-14.4-.8-4.6-1.5-9.3-3.6-13.8Z"/>
    <path class="cls-4" d="M530.1,356.3c-4.1,6.6-11.2,10.1-15.6,16.3-.4.6-1.2.6-1.8,0-.8-.8,0-1.5.4-2.2,3.7-7,10.1-10.8,17-14.2Z"/>
    <path class="cls-4" d="M481.1,426.1c-.2.6-.2,1.4-1,1.4-.2,0-.6-.4-.6-.6,0-.8.8-.9,1.4-1.1,0,0,.2.2.2.2Z"/>
    <path class="cls-4" d="M468,460c.3-.3.6-.7,1-1,0,0,.2.2.2.2-.4.3-.7.6-1.1.9,0,0,0,0,0,0Z"/>
    <path class="cls-4" d="M468.1,460.1c-.1.1-.3.3-.4.4.1-.2.3-.3.4-.5,0,0,0,0,0,0Z"/>
    <path class="cls-4" d="M580,390c-.1,0-.3-.2-.4-.2.1,0,.3.2.4.2,0,0,0,0,0,0Z"/>
    <path class="cls-2" d="M353.2,661.9c-13.7-3.8-24.5-10.4-33.2-20.4,4.7,1.1,31.8,17.6,33.2,20.4Z"/>
    <path class="cls-2" d="M358.1,681h19.8c-6,4.4-16.2,4.1-19.8,0h0Z"/>
    <path class="cls-2" d="M358.1,681c-.1,0-.3-.2-.4-.2.1,0,.3.2.4.2,0,0,0,0,0,0Z"/>
  </g>
  <g>
    <path class="cls-5" d="M9328,10316h-1536v-1583.9h1536v1583.9ZM9107.1,9644.2c0,.3,0,.5,0,.8h16.2c0-.3,0-.5,0-.8h-16.2Z"/>
    <path class="cls-1" d="M9107.1,9644.2h16.2c0,.3,0,.5,0,.8h-16.2c0-.3,0-.5,0-.8Z"/>
  </g>
  <path class="cls-4" d="M1091.4,406.1"/>
  <path class="cls-6" d="M1091.4,380"/>
  <path class="cls-4" d="M1089.5,635.3"/>
  <path class="cls-3" d="M922.5,638.9"/>
  <path class="cls-6" d="M414.5,672.9"/>
</svg>